<svg width="19" height="19" fill="none" xmlns="http://www.w3.org/2000/svg"><path d="M15.438 13.854a1.979 1.979 0 11-3.958 0 1.979 1.979 0 013.957 0zm-7.917 0a1.979 1.979 0 11-3.958 0 1.979 1.979 0 013.958 0z" stroke="#000" stroke-linecap="round" stroke-linejoin="round"/><path d="M11.48 13.854H7.52M1.584 3.167H9.5c1.12 0 1.68 0 2.027.348.348.347.348.906.348 2.027v6.729m.396-7.125h1.426c.657 0 .985 0 1.258.154.272.154.44.436.779 1l1.345 2.24c.167.28.251.42.295.576.043.156.043.32.043.646v2.113c0 .74 0 1.11-.16 1.385-.104.18-.254.33-.434.435-.276.16-.645.16-1.386.16M1.584 10.291v1.583c0 .74 0 1.11.16 1.385.104.18.254.33.434.435.276.16.645.16 1.385.16m-1.98-8.313h4.75m-4.75 2.375H4.75" stroke="#000" stroke-linecap="round" stroke-linejoin="round"/></svg>