<svg width="18" height="18" fill="none" xmlns="http://www.w3.org/2000/svg"><path d="M9 18a8.767 8.767 0 01-3.507-.708 9.103 9.103 0 01-2.859-1.924 9.088 9.088 0 01-1.925-2.856A8.752 8.752 0 010 9.003c0-1.245.236-2.415.709-3.51A9.106 9.106 0 012.63 2.634 9.055 9.055 0 015.487.709 8.768 8.768 0 018.997 0c1.244 0 2.414.236 3.51.709a9.088 9.088 0 012.859 1.924 9.107 9.107 0 011.925 2.857A8.736 8.736 0 0118 9v.989c0 .842-.29 1.554-.868 2.137-.579.583-1.29.874-2.132.874-.596 0-1.14-.163-1.63-.49a2.936 2.936 0 01-1.09-1.306c-.38.547-.855.983-1.425 1.308A3.692 3.692 0 019 13c-1.114 0-2.059-.388-2.835-1.164C5.388 11.059 5 10.113 5 9c0-1.113.388-2.058 1.165-2.835C6.942 5.388 7.887 5 9 5s2.059.388 2.836 1.165C12.613 6.942 13.001 7.887 13 9v.989c0 .548.196 1.02.589 1.417A1.91 1.91 0 0015 12c.548 0 1.019-.199 1.412-.594.393-.395.59-.868.588-1.418V9c0-2.233-.775-4.125-2.325-5.675C13.125 1.775 11.233 1 9 1c-2.233 0-4.125.775-5.675 2.325C1.775 4.875 1 6.767 1 9c0 2.233.775 4.125 2.325 5.675C4.875 16.225 6.767 17 9 17h5v1H9zm0-6c.833 0 1.542-.292 2.125-.875A2.893 2.893 0 0012 9c0-.833-.292-1.542-.875-2.125A2.893 2.893 0 009 6c-.833 0-1.542.292-2.125.875A2.893 2.893 0 006 9c0 .833.292 1.542.875 2.125A2.893 2.893 0 009 12z" fill="#000"/></svg>