<svg width="28" height="28" fill="none" xmlns="http://www.w3.org/2000/svg"><path d="M21.748 1.904L20.033 0H6.527c-.975 0-1.351.722-1.351 1.287v5.082H7.07V2.314c0-.215.182-.397.392-.397h9.664c.213 0 .32.037.32.212v6.748h6.878c.27 0 .375.14.375.345V25.7c0 .344-.14.396-.35.396H7.462a.402.402 0 01-.392-.398v-1.506H5.188v2.373c-.025.84.423 1.435 1.339 1.435h18.757c.98 0 1.315-.71 1.315-1.357V7.262l-.49-.532-4.361-4.826zm-2.378.224l.542.608 3.635 3.994.2.242h-3.714c-.28 0-.458-.047-.532-.14-.075-.091-.118-.238-.13-.438V2.128zm-1.526 12.806h6.408V16.8h-6.409l.001-1.867zm0-3.733h6.408v1.867h-6.409l.001-1.867zm0 7.467h6.408v1.867h-6.409l.001-1.867zM1.4 7.876V22.81h14.651V7.876H1.4zm7.326 8.686l-.896 1.37h.896V19.6H4.222l3.268-4.914-2.895-4.418h2.419l1.714 2.57 1.712-2.57h2.418l-2.901 4.418 3.272 4.914h-2.51l-1.993-3.038z" fill="#000"/></svg>