<svg width="16" height="16" fill="none" xmlns="http://www.w3.org/2000/svg"><path d="M8 1.625h3.188c.75 0 1.125.188 1.406.281.375.188.656.282.937.563.282.281.47.562.563.937.094.282.187.657.281 1.407v6.375c0 .75-.187 1.124-.281 1.406-.188.375-.281.656-.563.937-.28.281-.562.469-.937.563-.281.094-.656.187-1.406.281H4.813c-.75 0-1.125-.188-1.407-.281-.375-.188-.656-.281-.937-.563-.281-.281-.469-.562-.563-.937-.093-.281-.187-.656-.28-1.406V4.813c0-.75.187-1.125.28-1.407.188-.375.282-.656.563-.937.281-.281.562-.469.937-.563.282-.093.657-.187 1.407-.281H8zM8 .219H4.813c-.844 0-1.407.187-1.875.375a4.094 4.094 0 00-1.407.937C1.063 2 .875 2.375.594 2.938c-.188.468-.281 1.03-.375 1.875v6.375c0 .843.187 1.406.375 1.874.187.47.469.938.937 1.407.47.469.844.656 1.407.937.468.188 1.03.281 1.875.375h6.375a4.7 4.7 0 001.875-.375 4.094 4.094 0 001.406-.937c.469-.469.656-.844.937-1.406.188-.47.282-1.032.375-1.876V4.813c0-.844-.187-1.407-.375-1.875a4.094 4.094 0 00-.937-1.407C14 1.063 13.625.875 13.063.594c-.47-.188-1.032-.281-1.875-.375H8z" fill="#000"/><path d="M8 3.969A4.001 4.001 0 003.97 8 4.001 4.001 0 008 12.031 4.001 4.001 0 0012.031 8a4.001 4.001 0 00-4.03-4.031zm0 6.656A2.62 2.62 0 015.375 8 2.62 2.62 0 018 5.375 2.62 2.62 0 0110.625 8c0 1.406-1.219 2.625-2.625 2.625zm4.125-5.812a.937.937 0 100-1.875.937.937 0 000 1.875z" fill="#000"/></svg>