<svg width="19" height="19" fill="none" xmlns="http://www.w3.org/2000/svg"><path d="M4.75 7.917h3.167" stroke="#000" stroke-linecap="round" stroke-linejoin="round"/><path d="M16.493 8.708h-2.06c-1.413 0-2.558 1.064-2.558 2.375 0 1.312 1.146 2.375 2.557 2.375h2.06l.127-.001c.428-.026.768-.342.796-.739.002-.025.002-.056.002-.117V9.566c0-.061 0-.092-.002-.117-.028-.397-.368-.713-.796-.74h-.126z" stroke="#000"/><path d="M16.597 8.708c-.061-1.482-.26-2.39-.9-3.03-.927-.928-2.42-.928-5.405-.928H7.917c-2.986 0-4.479 0-5.406.928-.927.928-.928 2.42-.928 5.405 0 2.986 0 4.479.928 5.406.928.927 2.42.928 5.406.928h2.375c2.985 0 4.478 0 5.405-.928.64-.64.84-1.549.9-3.03" stroke="#000"/><path d="M4.75 4.75l2.957-1.961a2.565 2.565 0 012.795 0l2.956 1.961" stroke="#000" stroke-linecap="round"/><path d="M14.243 11.083h.008" stroke="#000" stroke-linecap="round" stroke-linejoin="round"/></svg>