<svg width="201" height="138" fill="none" xmlns="http://www.w3.org/2000/svg"><path d="M88.917 119.182C79.943 131.727 67.367 138 51.19 138s-28.754-6.273-37.728-18.818C4.487 106.636 0 89.909 0 69c0-20.91 4.487-37.636 13.46-50.182C22.436 6.273 35.01 0 51.19 0c16.177 0 28.753 6.273 37.727 18.818C97.891 31.364 102.378 48.091 102.378 69c0 20.91-4.487 37.636-13.46 50.182zm-62.564-11.975c5.814 8.997 14.093 13.495 24.836 13.495 10.743 0 19.022-4.498 24.836-13.495 5.94-8.998 8.91-21.733 8.91-38.207s-2.97-29.21-8.91-38.207C70.211 21.67 61.932 17.107 51.19 17.107c-10.743 0-19.022 4.5-24.836 13.496C20.539 39.601 17.632 52.4 17.632 69c0 16.474 2.907 29.21 8.72 38.207z" fill="url(#paint0_linear_1_144)"/><path d="M115.306 135.529v-14.446l46.828-47.901c12.513-12.546 18.77-23.317 18.77-32.314 0-7.477-2.276-13.306-6.826-17.488s-10.111-6.273-16.683-6.273c-12.513 0-21.614 5.956-27.301 17.868l-14.788-8.744c4.171-8.617 9.922-15.143 17.252-19.578C140.015 2.218 148.231 0 157.205 0c11.122 0 20.792 3.675 29.007 11.025 8.216 7.35 12.323 17.234 12.323 29.653 0 13.432-7.899 28.069-23.698 43.909L140.9 118.42H201v17.108h-85.694z" fill="url(#paint1_linear_1_144)"/><defs><linearGradient id="paint0_linear_1_144" x1="100.5" y1="0" x2="100.5" y2="245" gradientUnits="userSpaceOnUse"><stop stop-color="#5E7027"/><stop offset="1" stop-color="#fff"/></linearGradient><linearGradient id="paint1_linear_1_144" x1="100.5" y1="0" x2="100.5" y2="245" gradientUnits="userSpaceOnUse"><stop stop-color="#5E7027"/><stop offset="1" stop-color="#fff"/></linearGradient></defs></svg>