<svg width="201" height="138" fill="none" xmlns="http://www.w3.org/2000/svg"><path d="M88.98 119.182C80 131.727 67.414 138 51.225 138c-16.19 0-28.775-6.273-37.755-18.818C4.49 106.636 0 89.909 0 69c0-20.91 4.49-37.636 13.47-50.182C22.45 6.273 35.035 0 51.225 0S79.999 6.273 88.98 18.818C97.96 31.364 102.45 48.091 102.45 69c0 20.91-4.49 37.636-13.47 50.182zm-62.61-11.975c5.819 8.997 14.103 13.495 24.854 13.495 10.75 0 19.035-4.498 24.854-13.495 5.944-8.998 8.916-21.733 8.916-38.207s-2.972-29.21-8.916-38.207C70.26 21.67 61.976 17.107 51.225 17.107s-19.035 4.5-24.854 13.496C20.553 39.601 17.644 52.4 17.644 69c0 16.474 2.91 29.21 8.727 38.207z" fill="url(#paint0_linear_1_142)"/><path d="M166.471 57.025c10.118 1.9 18.403 6.273 24.853 13.116C197.775 76.984 201 85.663 201 96.18c0 12.926-4.427 23.128-13.281 30.604-8.853 7.477-19.604 11.215-32.252 11.215-10.119 0-19.099-2.281-26.941-6.843-7.842-4.689-13.407-11.405-16.695-20.149l14.798-8.744c3.921 12.292 13.534 18.438 28.838 18.438 8.221 0 14.925-2.154 20.11-6.462 5.186-4.309 7.779-10.328 7.779-18.058s-2.593-13.75-7.779-18.058c-5.185-4.435-11.889-6.653-20.11-6.653h-4.554l-7.019-10.835 30.735-41.628h-59.004V2.471h79.683v15.587l-28.837 38.967z" fill="url(#paint1_linear_1_142)"/><defs><linearGradient id="paint0_linear_1_142" x1="100.5" y1="0" x2="100.5" y2="243.5" gradientUnits="userSpaceOnUse"><stop stop-color="#5E7027"/><stop offset="1" stop-color="#fff"/></linearGradient><linearGradient id="paint1_linear_1_142" x1="100.5" y1="0" x2="100.5" y2="243.5" gradientUnits="userSpaceOnUse"><stop stop-color="#5E7027"/><stop offset="1" stop-color="#fff"/></linearGradient></defs></svg>