<svg width="217" height="138" fill="none" xmlns="http://www.w3.org/2000/svg"><path d="M88.972 119.182C79.992 131.727 67.407 138 51.22 138c-16.188 0-28.772-6.273-37.751-18.818C4.489 106.636 0 89.909 0 69c0-20.91 4.49-37.636 13.469-50.182C22.449 6.273 35.032 0 51.22 0s28.772 6.273 37.752 18.818C97.95 31.364 102.44 48.091 102.44 69c0 20.91-4.49 37.636-13.47 50.182zm-62.603-11.975c5.818 8.997 14.101 13.495 24.851 13.495 10.75 0 19.034-4.498 24.852-13.495 5.944-8.998 8.916-21.733 8.916-38.207s-2.972-29.21-8.916-38.207C70.254 21.67 61.97 17.107 51.22 17.107s-19.033 4.5-24.851 13.496C20.551 39.601 17.642 52.4 17.642 69c0 16.474 2.91 29.21 8.727 38.207z" fill="url(#paint0_linear_1_143)"/><path d="M217 93.71v16.538h-16.125v25.281h-17.642v-25.281h-67.725V93.711l47.616-91.24h18.97l-47.616 91.24h48.755V56.074h17.642v37.637H217z" fill="url(#paint1_linear_1_143)"/><defs><linearGradient id="paint0_linear_1_143" x1="108.5" y1="0" x2="108.5" y2="242.5" gradientUnits="userSpaceOnUse"><stop stop-color="#5E7027"/><stop offset="1" stop-color="#fff"/></linearGradient><linearGradient id="paint1_linear_1_143" x1="108.5" y1="0" x2="108.5" y2="242.5" gradientUnits="userSpaceOnUse"><stop stop-color="#5E7027"/><stop offset="1" stop-color="#fff"/></linearGradient></defs></svg>