<svg width="160" height="138" fill="none" xmlns="http://www.w3.org/2000/svg"><path d="M88.978 119.182C79.998 131.727 67.414 138 51.224 138c-16.19 0-28.774-6.273-37.754-18.818C4.49 106.636 0 89.909 0 69c0-20.91 4.49-37.636 13.47-50.182C22.45 6.273 35.035 0 51.224 0c16.19 0 28.774 6.273 37.754 18.818 8.98 12.546 13.47 29.273 13.47 50.182 0 20.91-4.49 37.636-13.47 50.182zm-62.607-11.975c5.818 8.997 14.102 13.495 24.853 13.495 10.75 0 19.035-4.498 24.853-13.495 5.945-8.998 8.917-21.733 8.917-38.207s-2.972-29.21-8.917-38.207C70.26 21.67 61.975 17.107 51.224 17.107c-10.75 0-19.035 4.5-24.853 13.496C20.553 39.601 17.644 52.4 17.644 69c0 16.474 2.909 29.21 8.727 38.207z" fill="url(#paint0_linear_1_145)"/><path d="M144.822 2.471H160V135.53h-17.454V21.479l-28.268 8.364-4.364-15.207 34.908-12.165z" fill="url(#paint1_linear_1_145)"/><defs><linearGradient id="paint0_linear_1_145" x1="80" y1="0" x2="80" y2="241.5" gradientUnits="userSpaceOnUse"><stop stop-color="#5E7027"/><stop offset="1" stop-color="#fff"/></linearGradient><linearGradient id="paint1_linear_1_145" x1="80" y1="0" x2="80" y2="241.5" gradientUnits="userSpaceOnUse"><stop stop-color="#5E7027"/><stop offset="1" stop-color="#fff"/></linearGradient></defs></svg>