<svg width="19" height="19" fill="none" xmlns="http://www.w3.org/2000/svg"><path d="M7.125 8.552a.71.71 0 100-1.42.71.71 0 000 1.42zm3.537 1.19a.71.71 0 11-1.421 0 .71.71 0 011.42 0zm-3.533 3.09a.713.713 0 100-1.425.713.713 0 000 1.426zM3.8 3.759c0-1.04.85-1.92 1.929-1.854 4.224.26 7.93 1.681 10.831 4.452.824.786.662 2.07-.192 2.725a288.698 288.698 0 01-4.014 3.043v1.653c0 .681-.527 1.425-1.425 1.425-.16 0-.32-.026-.473-.076v.079c0 .677-.528 1.416-1.428 1.416-.716 0-1.189-.471-1.355-.997-.52.39-1.09.813-1.598 1.191-.94.7-2.275.028-2.275-1.14V3.758zm6.656 10.019c0 .246.184.475.473.475.29 0 .475-.23.475-.475v-1.894a.476.476 0 01.196-.384 191.35 191.35 0 003.12-2.35c-2.559-2.435-6.145-3.88-9.97-3.91v10.435a.476.476 0 00.758.38c.747-.557 1.627-1.212 2.289-1.708a.474.474 0 01.76.38v.479c0 .234.18.467.47.467a.467.467 0 00.478-.467v-1.428a.475.475 0 01.95 0zm5.331-5.448c.442-.34.475-.944.116-1.287C13.189 4.452 9.709 3.1 5.67 2.851c-.492-.03-.92.374-.92.907v.53c4.11.032 7.983 1.603 10.732 4.275l.305-.234z" fill="#000"/></svg>