<svg width="16" height="13" fill="none" xmlns="http://www.w3.org/2000/svg"><path d="M1.594 5.727c4.026-1.755 6.711-2.911 8.055-3.47C13.484.66 14.28.384 14.8.375c.114-.002.37.026.535.16.14.114.178.267.197.375.018.107.041.352.023.544-.208 2.184-1.107 7.484-1.565 9.93-.194 1.035-.575 1.382-.944 1.416-.802.074-1.411-.53-2.188-1.04-1.216-.796-1.902-1.292-3.082-2.07-1.364-.899-.48-1.393.297-2.2.203-.211 3.738-3.426 3.806-3.717.008-.037.016-.173-.064-.244-.081-.072-.2-.048-.286-.028-.122.028-2.064 1.311-5.826 3.85-.552.38-1.05.564-1.498.554-.493-.01-1.442-.279-2.147-.508-.865-.281-1.553-.43-1.493-.907.031-.25.374-.503 1.028-.763z" fill="#000"/></svg>