<svg width="32" height="32" fill="none" xmlns="http://www.w3.org/2000/svg"><path d="M4 21.25a3 3 0 010-6m24 6a3 3 0 000-6M8.5 8.5V4m15 4.5V4m-15 0a1.5 1.5 0 100-3 1.5 1.5 0 000 3zm15 0a1.5 1.5 0 100-3 1.5 1.5 0 000 3zm-5.25 4.5h-4.5c-4.242 0-6.364 0-7.681 1.364-1.317 1.363-1.319 3.558-1.319 7.947s0 6.583 1.319 7.947c1.317 1.363 3.44 1.363 7.681 1.363h1.538c1.188 0 1.606.245 2.425 1.136.905.985 2.306 2.3 3.573 2.607 1.802.435 2.004-.167 1.602-1.884-.114-.49-.4-1.27-.099-1.727.17-.255.45-.318 1.013-.444.886-.198 1.618-.522 2.13-1.051 1.318-1.365 1.318-3.558 1.318-7.947 0-4.39 0-6.584-1.318-7.947C24.615 8.5 22.492 8.5 18.25 8.5z" stroke="#000" stroke-width="1.5" stroke-linecap="round" stroke-linejoin="round"/><path d="M12.25 20.5c.855.91 2.217 1.5 3.75 1.5s2.895-.59 3.75-1.5m-8.236-6H11.5m9.014 0H20.5" stroke="#000" stroke-width="1.5" stroke-linecap="round" stroke-linejoin="round"/></svg>