<svg width="19" height="19" fill="none" xmlns="http://www.w3.org/2000/svg"><g clip-path="url(#clip0_1_228)" stroke="#000" stroke-linecap="round" stroke-linejoin="round"><path d="M3.894 13.063a5.344 5.344 0 1010.688 0 5.344 5.344 0 00-10.688 0z"/><path d="M8.51 10.094v2.969l2.375 1.78"/><path d="M14.55 12.48a4.338 4.338 0 003-4.168 5.985 5.985 0 00-1.78-4.156 2.058 2.058 0 01-2.376 1.782A4.505 4.505 0 0112.207.593c-3.712 0-6.087 2.19-6.532 5.343A2.185 2.185 0 013.3 4.157c-2.98 2.533-2.258 7.158.625 8.325"/></g><defs><clipPath id="clip0_1_228"><path fill="#fff" d="M0 0h19v19H0z"/></clipPath></defs></svg>